<?xml version="1.0" encoding="utf-8"?>
<svg version="1.1" xmlns:xlink="http://www.w3.org/1999/xlink" width="80px" height="95px" xmlns="http://www.w3.org/2000/svg">
  <defs>
    <mask fill="white" id="clip8">
      <path d="M 33 48.56337810714839  L 33 0.0013786033056918067  C 46.37686087443373 0.10084084504030652  58.36769946497867 5.57610086220526  66.87766256109816 14.434122520132872  C 75.03997047255206 22.930269852581656  80 34.53843440535525  80 47.5  C 80 59.946229169065916  75.42653958600636 71.14453712012237  67.83593690998671 79.53783979659936  C 59.20395293430349 89.08264899011652  46.67017330470151 95  32.523364485981304 95  C 20.011470424563743 95  8.761320730169993 90.37132721788848  0.3563324362241865 82.69817711515489  L 33 48.56337810714839  Z " fill-rule="evenodd" />
    </mask>
  </defs>
  <g transform="matrix(1 0 0 1 -87 -54 )">
    <path d="M 33 48.56337810714839  L 33 0.0013786033056918067  C 46.37686087443373 0.10084084504030652  58.36769946497867 5.57610086220526  66.87766256109816 14.434122520132872  C 75.03997047255206 22.930269852581656  80 34.53843440535525  80 47.5  C 80 59.946229169065916  75.42653958600636 71.14453712012237  67.83593690998671 79.53783979659936  C 59.20395293430349 89.08264899011652  46.67017330470151 95  32.523364485981304 95  C 20.011470424563743 95  8.761320730169993 90.37132721788848  0.3563324362241865 82.69817711515489  L 33 48.56337810714839  Z " fill-rule="nonzero" fill="#ffffff" stroke="none" transform="matrix(1 0 0 1 87 54 )" />
    <path d="M 33 48.56337810714839  L 33 0.0013786033056918067  C 46.37686087443373 0.10084084504030652  58.36769946497867 5.57610086220526  66.87766256109816 14.434122520132872  C 75.03997047255206 22.930269852581656  80 34.53843440535525  80 47.5  C 80 59.946229169065916  75.42653958600636 71.14453712012237  67.83593690998671 79.53783979659936  C 59.20395293430349 89.08264899011652  46.67017330470151 95  32.523364485981304 95  C 20.011470424563743 95  8.761320730169993 90.37132721788848  0.3563324362241865 82.69817711515489  L 33 48.56337810714839  Z " stroke-width="18" stroke="#65cc48" fill="none" transform="matrix(1 0 0 1 87 54 )" mask="url(#clip8)" />
  </g>
</svg>