<?xml version="1.0" encoding="utf-8"?>
<svg version="1.1" xmlns:xlink="http://www.w3.org/1999/xlink" width="15px" height="14px" xmlns="http://www.w3.org/2000/svg">
  <g transform="matrix(1 0 0 1 -820 -267 )">
    <path d="M 6.666666666666666 1.0769230769230762  L 6.666666666666666 7.487980769230768  L 11.40625 12.081730769230768  C 10.792824074074074 12.6875  10.07667824074074 13.158653846153847  9.2578125 13.495192307692308  C 8.43894675925926 13.83173076923077  7.575231481481481 14  6.666666666666666 14  C 5.4571759259259265 14  4.341724537037037 13.711137820512821  3.3203125 13.133413461538462  C 2.2989004629629637 12.555689102564102  1.4901620370370372 11.771834935897438  0.8940972222222222 10.781850961538462  C 0.2980324074074074 9.791866987179487  0 8.710737179487179  0 7.538461538461538  C 0 6.366185897435896  0.2980324074074074 5.285056089743588  0.8940972222222222 4.295072115384616  C 1.4901620370370372 3.3050881410256405  2.2989004629629637 2.5212339743589736  3.3203125 1.9435096153846159  C 4.341724537037037 1.365785256410255  5.4571759259259265 1.0769230769230762  6.666666666666666 1.0769230769230762  Z M 13.020833333333334 12.132211538461538  L 8.289930555555557 7.538461538461538  L 15 7.538461538461538  C 15.000000000000004 8.419070512820513  14.826388888888891 9.256209935897434  14.479166666666666 10.049879807692308  C 14.131944444444446 10.843549679487179  13.645833333333336 11.537660256410255  13.020833333333334 12.132211538461538  Z M 13.550347222222223 3.2181490384615383  C 14.146412037037038 4.208133012820512  14.444444444444443 5.289262820512819  14.444444444444443 6.461538461538462  L 7.777777777777778 6.461538461538462  L 7.777777777777778 0  C 8.987268518518519 0  10.102719907407408 0.2888621794871804  11.124131944444445 0.8665865384615381  C 12.145543981481481 1.4443108974358958  12.954282407407408 2.228165064102563  13.550347222222223 3.2181490384615383  Z " fill-rule="nonzero" fill="#041c74" stroke="none" transform="matrix(1 0 0 1 820 267 )" />
  </g>
</svg>