<?xml version="1.0" encoding="utf-8"?>
<svg version="1.1" xmlns:xlink="http://www.w3.org/1999/xlink" width="21px" height="11px" xmlns="http://www.w3.org/2000/svg">
  <g transform="matrix(1 0 0 1 -1035 -269 )">
    <path d="M 13.923437499999999 10.49392361111111  C 13.974479166666667 10.557581018518519  14 10.624421296296296  14 10.694444444444445  C 14 10.777199074074074  13.965364583333335 10.848813657407408  13.89609375 10.909288194444445  C 13.826822916666668 10.969762731481481  13.744791666666668 11  13.65 11  L 3.15 11  C 3.091666666666667 11  3.0424479166666667 10.99363425925926  3.00234375 10.980902777777777  C 2.9622395833333335 10.968171296296296  2.9294270833333336 10.945891203703704  2.90390625 10.9140625  C 2.8783854166666667 10.882233796296296  2.858333333333334 10.856770833333332  2.84375 10.83767361111111  C 2.829166666666667 10.81857638888889  2.8182291666666672 10.781973379629632  2.8109375 10.727864583333332  C 2.803645833333334 10.673755787037036  2.8 10.637152777777777  2.8 10.618055555555555  L 2.8 10.49392361111111  L 2.8 10.38888888888889  L 2.8 8.86111111111111  L 2.8 4.888888888888888  L 0.7 4.888888888888888  C 0.5104166666666667 4.888888888888888  0.3463541666666667 4.828414351851851  0.20781249999999998 4.707465277777777  C 0.06927083333333334 4.586516203703703  0 4.443287037037036  0 4.277777777777777  C 0 4.125  0.0546875 3.9945023148148135  0.1640625 3.8862847222222228  L 3.6640625 0.2196180555555557  C 3.8026041666666672 0.07957175925925908  3.9812499999999997 0.009548611111111382  4.2 0.009548611111111382  C 4.418750000000001 0.009548611111111382  4.597395833333334 0.07957175925925908  4.7359375 0.2196180555555557  L 8.2359375 3.8862847222222228  C 8.3453125 3.9945023148148135  8.4 4.125  8.4 4.277777777777777  C 8.4 4.443287037037036  8.330729166666666 4.586516203703703  8.1921875 4.707465277777777  C 8.053645833333333 4.828414351851851  7.889583333333333 4.888888888888888  7.699999999999999 4.888888888888888  L 5.6 4.888888888888888  L 5.6 8.555555555555555  L 11.9 8.555555555555555  C 12.016666666666667 8.555555555555555  12.1078125 8.590567129629632  12.1734375 8.660590277777777  L 13.923437499999999 10.49392361111111  Z M 20.7921875 6.292534722222223  C 20.93072916666667 6.413483796296296  21.000000000000004 6.556712962962961  21 6.722222222222223  C 21.000000000000004 6.875  20.945312500000004 7.005497685185184  20.8359375 7.113715277777777  L 17.3359375 10.780381944444445  C 17.190104166666668 10.926793981481481  17.011458333333334 11  16.8 11  C 16.588541666666668 11  16.409895833333334 10.926793981481481  16.2640625 10.780381944444445  L 12.7640625 7.113715277777777  C 12.654687500000001 7.005497685185184  12.6 6.875  12.6 6.722222222222223  C 12.6 6.556712962962961  12.669270833333334 6.413483796296296  12.807812499999999 6.292534722222223  C 12.946354166666667 6.171585648148148  13.110416666666667 6.111111111111112  13.299999999999999 6.111111111111112  L 15.399999999999999 6.111111111111112  L 15.399999999999999 2.444444444444444  L 9.1 2.444444444444444  C 8.983333333333336 2.444444444444444  8.892187500000002 2.40625  8.8265625 2.3298611111111116  L 7.0765625 0.49652777777777724  C 7.025520833333333 0.4392361111111114  7 0.3755787037037034  7 0.3055555555555557  C 7 0.22280092592592493  7.034635416666667 0.151186342592592  7.10390625 0.09071180555555569  C 7.173177083333333 0.030237268518516935  7.255208333333333 0  7.35 0  L 17.849999999999998 0  C 17.908333333333335 0  17.957552083333333 0.0063657407407397  17.997656250000002 0.019097222222222765  C 18.037760416666668 0.03182870370370339  18.070572916666666 0.05410879629629539  18.096093749999998 0.0859375  C 18.121614583333333 0.11776620370370339  18.141666666666666 0.14322916666666707  18.15625 0.16232638888888862  C 18.170833333333334 0.18142361111111138  18.181770833333335 0.21802662037036924  18.1890625 0.2721354166666671  C 18.196354166666666 0.32624421296296124  18.2 0.36284722222222276  18.2 0.3819444444444443  L 18.2 0.5060763888888886  L 18.2 0.6111111111111114  L 18.2 2.1388888888888884  L 18.2 6.111111111111112  L 20.3 6.111111111111112  C 20.489583333333336 6.111111111111112  20.653645833333336 6.171585648148148  20.7921875 6.292534722222223  Z " fill-rule="nonzero" fill="#041c74" stroke="none" transform="matrix(1 0 0 1 1035 269 )" />
  </g>
</svg>