<?xml version="1.0" encoding="utf-8"?>
<svg version="1.1" xmlns:xlink="http://www.w3.org/1999/xlink" width="18px" height="14px" xmlns="http://www.w3.org/2000/svg">
  <g transform="matrix(1 0 0 1 -597 -267 )">
    <path d="M 1.125 12.833333333333332  L 18 12.833333333333332  L 18 14  L 0 14  L 0 0  L 1.125 0  L 1.125 12.833333333333332  Z M 16.7958984375 1.2486979166666672  C 16.848632812500004 1.3033854166666672  16.875000000000004 1.3732638888888875  16.875 1.4583333333333328  L 16.875 5.423177083333333  C 16.875000000000004 5.550781249999998  16.817871093750004 5.640407986111111  16.70361328125 5.692057291666667  C 16.589355468750004 5.743706597222221  16.485351562500004 5.720920138888889  16.3916015625 5.623697916666667  L 15.328125 4.520833333333333  L 9.7646484375 10.290364583333334  C 9.706054687500002 10.351128472222221  9.638671875 10.381510416666666  9.5625 10.381510416666666  C 9.486328125000002 10.381510416666666  9.4189453125 10.351128472222221  9.3603515625 10.290364583333334  L 7.3125 8.166666666666666  L 3.65625 11.958333333333332  L 1.96875 10.208333333333334  L 7.1103515625 4.876302083333333  C 7.168945312500001 4.815538194444444  7.236328125000002 4.78515625  7.3125 4.78515625  C 7.388671875000001 4.78515625  7.4560546875 4.815538194444444  7.5146484375 4.876302083333333  L 9.5625 7  L 13.640625 2.770833333333333  L 12.5771484375 1.66796875  C 12.483398437500002 1.5707465277777766  12.461425781250002 1.462890625  12.51123046875 1.3444010416666672  C 12.56103515625 1.2259114583333328  12.6474609375 1.1666666666666672  12.7705078125 1.1666666666666672  L 16.59375 1.1666666666666672  C 16.67578125 1.1666666666666672  16.743164062500004 1.1940104166666672  16.7958984375 1.2486979166666672  Z " fill-rule="nonzero" fill="#041c74" stroke="none" transform="matrix(1 0 0 1 597 267 )" />
  </g>
</svg>