<?xml version="1.0" encoding="utf-8"?>
<svg version="1.1" xmlns:xlink="http://www.w3.org/1999/xlink" width="15px" height="15px" xmlns="http://www.w3.org/2000/svg">
  <g transform="matrix(1 0 0 1 -375 -267 )">
    <path d="M 4 5.357142857142857  C 4 6.132812499999999  4.2109375 6.847098214285714  4.6328125 7.5  C 3.7890625000000004 7.5279017857142865  3.0989583333333335 7.885044642857142  2.5625 8.571428571428571  L 1.515625 8.571428571428571  C 1.0885416666666665 8.571428571428571  0.7291666666666667 8.458426339285715  0.4375 8.232421875  C 0.14583333333333331 8.006417410714285  0 7.67578125  0 7.240513392857143  C 0 5.27064732142857  0.32291666666666663 4.285714285714286  0.9687500000000001 4.285714285714286  C 1 4.285714285714286  1.11328125 4.344308035714286  1.30859375 4.461495535714286  C 1.50390625 4.578683035714286  1.7578125 4.697265624999999  2.0703125 4.817243303571429  C 2.3828125 4.937220982142857  2.6927083333333335 4.997209821428571  3 4.997209821428571  C 3.3489583333333335 4.997209821428571  3.6953125 4.9330357142857135  4.0390625 4.8046875  C 4.013020833333334 5.011160714285713  4 5.195312499999999  4 5.357142857142857  Z M 12.97265625 11.965680803571429  C 12.990885416666668 12.247488839285714  13 12.536272321428573  13 12.83203125  C 13 13.501674107142856  12.809895833333334 14.030412946428573  12.4296875 14.418247767857144  C 12.049479166666668 14.806082589285714  11.544270833333334 15  10.9140625 15  L 4.0859375 15  C 3.455729166666667 15  2.950520833333334 14.806082589285714  2.5703125 14.418247767857144  C 2.190104166666667 14.030412946428573  2 13.501674107142856  2 12.83203125  C 2 12.536272321428573  2.0091145833333335 12.247488839285714  2.02734375 11.965680803571429  C 2.045572916666667 11.683872767857142  2.08203125 11.379743303571429  2.13671875 11.053292410714285  C 2.19140625 10.726841517857142  2.260416666666667 10.424107142857142  2.34375 10.145089285714285  C 2.4270833333333335 9.866071428571427  2.5390625 9.59402901785714  2.6796875 9.328962053571429  C 2.8203125 9.063895089285714  2.9817708333333335 8.837890624999998  3.1640625 8.650948660714285  C 3.346354166666667 8.464006696428573  3.569010416666667 8.314732142857142  3.8320312500000004 8.203125  C 4.095052083333334 8.091517857142856  4.385416666666667 8.035714285714285  4.703125 8.035714285714285  C 4.755208333333334 8.035714285714285  4.8671875 8.095703125  5.0390625 8.215680803571429  C 5.2109375 8.335658482142858  5.401041666666667 8.469587053571427  5.609375 8.617466517857142  C 5.817708333333334 8.765345982142856  6.096354166666667 8.899274553571427  6.4453125 9.019252232142858  C 6.794270833333334 9.139229910714286  7.145833333333334 9.19921875  7.5 9.19921875  C 7.854166666666667 9.19921875  8.205729166666668 9.139229910714286  8.5546875 9.019252232142858  C 8.903645833333334 8.899274553571427  9.182291666666668 8.765345982142856  9.390625 8.617466517857142  C 9.598958333333334 8.469587053571427  9.7890625 8.335658482142858  9.9609375 8.215680803571429  C 10.1328125 8.095703125  10.244791666666668 8.035714285714285  10.296875 8.035714285714285  C 10.614583333333334 8.035714285714285  10.904947916666668 8.091517857142856  11.16796875 8.203125  C 11.430989583333334 8.314732142857142  11.653645833333334 8.464006696428573  11.8359375 8.650948660714285  C 12.018229166666668 8.837890624999998  12.1796875 9.063895089285714  12.3203125 9.328962053571429  C 12.4609375 9.59402901785714  12.572916666666668 9.866071428571427  12.65625 10.145089285714285  C 12.739583333333334 10.424107142857142  12.80859375 10.726841517857142  12.86328125 11.053292410714285  C 12.91796875 11.379743303571429  12.954427083333334 11.683872767857142  12.97265625 11.965680803571429  Z M 4.4140625 0.627790178571429  C 4.8046875 1.0463169642857144  5 1.5513392857142843  5 2.1428571428571437  C 5 2.7343749999999996  4.8046875 3.239397321428571  4.4140625 3.6579241071428563  C 4.0234375 4.076450892857143  3.5520833333333335 4.285714285714286  3 4.285714285714286  C 2.447916666666667 4.285714285714286  1.9765625 4.076450892857143  1.5859375 3.6579241071428563  C 1.1953125 3.239397321428571  1 2.7343749999999996  1 2.1428571428571437  C 1 1.5513392857142843  1.1953125 1.0463169642857144  1.5859375 0.627790178571429  C 1.9765625 0.20926339285714357  2.447916666666667 0  3 0  C 3.5520833333333335 0  4.0234375 0.20926339285714357  4.4140625 0.627790178571429  Z M 9.62109375 3.0845424107142856  C 10.20703125 3.7123325892857144  10.5 4.469866071428571  10.5 5.357142857142857  C 10.5 6.244419642857143  10.20703125 7.001953125  9.62109375 7.629743303571429  C 9.03515625 8.257533482142858  8.328125 8.571428571428571  7.5 8.571428571428571  C 6.671875000000001 8.571428571428571  5.964843750000001 8.257533482142858  5.37890625 7.629743303571429  C 4.79296875 7.001953125  4.5 6.244419642857143  4.5 5.357142857142857  C 4.5 4.469866071428571  4.79296875 3.7123325892857144  5.37890625 3.0845424107142856  C 5.964843750000001 2.4567522321428563  6.671875000000001 2.1428571428571437  7.5 2.1428571428571437  C 8.328125 2.1428571428571437  9.03515625 2.4567522321428563  9.62109375 3.0845424107142856  Z M 14.03125 4.285714285714286  C 14.677083333333336 4.285714285714286  15.000000000000004 5.27064732142857  15 7.240513392857143  C 15.000000000000004 7.67578125  14.854166666666668 8.006417410714285  14.5625 8.232421875  C 14.270833333333334 8.458426339285715  13.911458333333334 8.571428571428571  13.484375 8.571428571428571  L 12.4375 8.571428571428571  C 11.901041666666668 7.885044642857142  11.2109375 7.5279017857142865  10.3671875 7.5  C 10.7890625 6.847098214285714  11 6.132812499999999  11 5.357142857142857  C 11 5.195312499999999  10.986979166666668 5.011160714285713  10.9609375 4.8046875  C 11.3046875 4.9330357142857135  11.651041666666668 4.997209821428571  12 4.997209821428571  C 12.307291666666668 4.997209821428571  12.6171875 4.937220982142857  12.9296875 4.817243303571429  C 13.2421875 4.697265624999999  13.49609375 4.578683035714286  13.69140625 4.461495535714286  C 13.88671875 4.344308035714286  14 4.285714285714286  14.03125 4.285714285714286  Z M 13.4140625 0.627790178571429  C 13.8046875 1.0463169642857144  14 1.5513392857142843  14 2.1428571428571437  C 14 2.7343749999999996  13.8046875 3.239397321428571  13.4140625 3.6579241071428563  C 13.0234375 4.076450892857143  12.552083333333334 4.285714285714286  12 4.285714285714286  C 11.447916666666668 4.285714285714286  10.9765625 4.076450892857143  10.5859375 3.6579241071428563  C 10.1953125 3.239397321428571  10 2.7343749999999996  10 2.1428571428571437  C 10 1.5513392857142843  10.1953125 1.0463169642857144  10.5859375 0.627790178571429  C 10.9765625 0.20926339285714357  11.447916666666668 0  12 0  C 12.552083333333334 0  13.0234375 0.20926339285714357  13.4140625 0.627790178571429  Z " fill-rule="nonzero" fill="#041c74" stroke="none" transform="matrix(1 0 0 1 375 267 )" />
  </g>
</svg>